mtllib material.mtl
usemtl 0.000000_0.000000_0.000000_0.000000_0.006
v 0.00081100 -0.12450000 0.00004400
v 0.00000000 -0.12450000 0.00000000
v 0.00161200 -0.12450000 0.00017500
v 0.00239500 -0.12450000 0.00039300
v 0.00314900 -0.12450000 0.00069300
v 0.00386700 -0.12450000 0.00107400
v 0.00453900 -0.12450000 0.00152900
v 0.00515800 -0.12450000 0.00205500
v 0.00571600 -0.12450000 0.00264500
v 0.00620800 -0.12450000 0.00329100
v 0.00662600 -0.12450000 0.00398700
v 0.00696700 -0.12450000 0.00472400
v 0.00722700 -0.12450000 0.00549400
v 0.00740100 -0.12450000 0.00628700
v 0.00748900 -0.12450000 0.00709400
v 0.00748900 -0.12450000 0.00790600
v 0.00740100 -0.12450000 0.00871300
v 0.00722700 -0.12450000 0.00950600
v 0.00696700 -0.12450000 0.01027600
v 0.00662600 -0.12450000 0.01101300
v 0.00620800 -0.12450000 0.01170900
v 0.00515800 -0.12450000 0.01294500
v 0.00571600 -0.12450000 0.01235500
v 0.00453900 -0.12450000 0.01347100
v 0.00386700 -0.12450000 0.01392600
v 0.00314900 -0.12450000 0.01430700
v 0.00239500 -0.12450000 0.01460700
v 0.00161200 -0.12450000 0.01482500
v 0.00081100 -0.12450000 0.01495600
v -0.00081100 -0.12450000 0.01495600
v 0.00000000 -0.12450000 0.01500000
v -0.00161200 -0.12450000 0.01482500
v -0.00239500 -0.12450000 0.01460700
v -0.00314900 -0.12450000 0.01430700
v -0.00386700 -0.12450000 0.01392600
v -0.00453900 -0.12450000 0.01347100
v -0.00515800 -0.12450000 0.01294500
v -0.00571600 -0.12450000 0.01235500
v -0.00620800 -0.12450000 0.01170900
v -0.00662600 -0.12450000 0.01101300
v -0.00696700 -0.12450000 0.01027600
v -0.00722700 -0.12450000 0.00950600
v -0.00740100 -0.12450000 0.00871300
v -0.00748900 -0.12450000 0.00790600
v -0.00748900 -0.12450000 0.00709400
v -0.00740100 -0.12450000 0.00628700
v -0.00722700 -0.12450000 0.00549400
v -0.00696700 -0.12450000 0.00472400
v -0.00662600 -0.12450000 0.00398700
v -0.00620800 -0.12450000 0.00329100
v -0.00515800 -0.12450000 0.00205500
v -0.00571600 -0.12450000 0.00264500
v -0.00453900 -0.12450000 0.00152900
v -0.00386700 -0.12450000 0.00107400
v -0.00314900 -0.12450000 0.00069300
v -0.00239500 -0.12450000 0.00039300
v -0.00161200 -0.12450000 0.00017500
v -0.00081100 -0.12450000 0.00004400
v 0.00000000 -0.12450000 0.00750000
v -0.00314900 -0.12246000 0.00069300
v -0.00386700 -0.12243900 0.00107400
v -0.00453900 -0.12241600 0.00152900
v -0.00239500 -0.12247700 0.00039300
v -0.00515800 -0.12239100 0.00205500
v -0.00161200 -0.12248900 0.00017500
v -0.00081100 -0.12249700 0.00004400
v 0.00000000 -0.12250000 0.00000000
v -0.00541900 -0.12238000 0.00233000
v -0.00571600 -0.12236700 0.01235500
v -0.00541900 -0.12238000 0.01267000
v -0.00620800 -0.12234300 0.01170900
v -0.00662600 -0.12232100 0.01101300
v -0.00696700 -0.12230200 0.01027600
v -0.00722700 -0.12228700 0.00950600
v -0.00740100 -0.12227600 0.00871300
v -0.00748900 -0.12227100 0.00790600
v -0.00748900 -0.12227100 0.00709400
v -0.00571600 -0.12236700 0.00264500
v -0.00620800 -0.12234300 0.00329100
v -0.00662600 -0.12232100 0.00398700
v -0.00696700 -0.12230200 0.00472400
v -0.00722700 -0.12228700 0.00549400
v -0.00740100 -0.12227600 0.00628700
v 0.00314900 -0.12246000 0.01430700
v 0.00386700 -0.12243900 0.01392600
v 0.00453900 -0.12241600 0.01347100
v 0.00081100 -0.12249700 0.01495600
v 0.00161200 -0.12248900 0.01482500
v -0.00161200 -0.12248900 0.01482500
v -0.00453900 -0.12241600 0.01347100
v -0.00386700 -0.12243900 0.01392600
v -0.00515800 -0.12239100 0.01294500
v -0.00314900 -0.12246000 0.01430700
v -0.00239500 -0.12247700 0.01460700
v -0.00081100 -0.12249700 0.01495600
v 0.00000000 -0.12250000 0.01500000
v 0.00239500 -0.12247700 0.01460700
v 0.00515800 -0.12239100 0.01294500
v 0.00571600 -0.12236700 0.00264500
v 0.00541900 -0.12238000 0.00233000
v 0.00620800 -0.12234300 0.00329100
v 0.00662600 -0.12232100 0.00398700
v 0.00696700 -0.12230200 0.00472400
v 0.00722700 -0.12228700 0.00549400
v 0.00740100 -0.12227600 0.00628700
v 0.00748900 -0.12227100 0.00709400
v 0.00748900 -0.12227100 0.00790600
v 0.00740100 -0.12227600 0.00871300
v 0.00662600 -0.12232100 0.01101300
v 0.00541900 -0.12238000 0.01267000
v 0.00571600 -0.12236700 0.01235500
v 0.00620800 -0.12234300 0.01170900
v 0.00696700 -0.12230200 0.01027600
v 0.00722700 -0.12228700 0.00950600
v 0.00453900 -0.12241600 0.00152900
v 0.00386700 -0.12243900 0.00107400
v 0.00515800 -0.12239100 0.00205500
v 0.00314900 -0.12246000 0.00069300
v 0.00239500 -0.12247700 0.00039300
v 0.00161200 -0.12248900 0.00017500
v 0.00081100 -0.12249700 0.00004400
v 0.00081100 -0.12450000 0.00004400
v 0.00000000 -0.12450000 0.00000000
v 0.00161200 -0.12450000 0.00017500
v 0.00239500 -0.12450000 0.00039300
v 0.00314900 -0.12450000 0.00069300
v 0.00386700 -0.12450000 0.00107400
v 0.00453900 -0.12450000 0.00152900
v 0.00515800 -0.12450000 0.00205500
v 0.00571600 -0.12450000 0.00264500
v 0.00620800 -0.12450000 0.00329100
v 0.00662600 -0.12450000 0.00398700
v 0.00696700 -0.12450000 0.00472400
v 0.00722700 -0.12450000 0.00549400
v 0.00740100 -0.12450000 0.00628700
v 0.00748900 -0.12450000 0.00709400
v 0.00748900 -0.12450000 0.00790600
v 0.00740100 -0.12450000 0.00871300
v 0.00722700 -0.12450000 0.00950600
v 0.00696700 -0.12450000 0.01027600
v 0.00662600 -0.12450000 0.01101300
v 0.00620800 -0.12450000 0.01170900
v 0.00515800 -0.12450000 0.01294500
v 0.00571600 -0.12450000 0.01235500
v 0.00453900 -0.12450000 0.01347100
v 0.00386700 -0.12450000 0.01392600
v 0.00314900 -0.12450000 0.01430700
v 0.00239500 -0.12450000 0.01460700
v 0.00161200 -0.12450000 0.01482500
v 0.00081100 -0.12450000 0.01495600
v -0.00081100 -0.12450000 0.01495600
v 0.00000000 -0.12450000 0.01500000
v -0.00161200 -0.12450000 0.01482500
v -0.00239500 -0.12450000 0.01460700
v -0.00314900 -0.12450000 0.01430700
v -0.00386700 -0.12450000 0.01392600
v -0.00453900 -0.12450000 0.01347100
v -0.00515800 -0.12450000 0.01294500
v -0.00571600 -0.12450000 0.01235500
v -0.00620800 -0.12450000 0.01170900
v -0.00662600 -0.12450000 0.01101300
v -0.00696700 -0.12450000 0.01027600
v -0.00722700 -0.12450000 0.00950600
v -0.00740100 -0.12450000 0.00871300
v -0.00748900 -0.12450000 0.00790600
v -0.00748900 -0.12450000 0.00709400
v -0.00740100 -0.12450000 0.00628700
v -0.00722700 -0.12450000 0.00549400
v -0.00696700 -0.12450000 0.00472400
v -0.00662600 -0.12450000 0.00398700
v -0.00620800 -0.12450000 0.00329100
v -0.00515800 -0.12450000 0.00205500
v -0.00571600 -0.12450000 0.00264500
v -0.00453900 -0.12450000 0.00152900
v -0.00386700 -0.12450000 0.00107400
v -0.00314900 -0.12450000 0.00069300
v -0.00239500 -0.12450000 0.00039300
v -0.00161200 -0.12450000 0.00017500
v -0.00081100 -0.12450000 0.00004400
vn -0.00000000 -1.00000000 -0.00000000
vn -0.00000000 -1.00000000 -0.00000000
vn -0.00000000 -1.00000000 -0.00000000
vn -0.00000000 -1.00000000 -0.00000000
vn -0.00000000 -1.00000000 -0.00000000
vn -0.00000000 -1.00000000 -0.00000000
vn -0.00000000 -1.00000000 -0.00000000
vn -0.00000000 -1.00000000 -0.00000000
vn -0.00000000 -1.00000000 -0.00000000
vn -0.00000000 -1.00000000 -0.00000000
vn -0.00000000 -1.00000000 -0.00000000
vn -0.00000000 -1.00000000 -0.00000000
vn -0.00000000 -1.00000000 -0.00000000
vn -0.00000000 -1.00000000 -0.00000000
vn -0.00000000 -1.00000000 -0.00000000
vn -0.00000000 -1.00000000 -0.00000000
vn -0.00000000 -1.00000000 -0.00000000
vn -0.00000000 -1.00000000 -0.00000000
vn -0.00000000 -1.00000000 -0.00000000
vn -0.00000000 -1.00000000 -0.00000000
vn -0.00000000 -1.00000000 -0.00000000
vn -0.00000000 -1.00000000 -0.00000000
vn -0.00000000 -1.00000000 -0.00000000
vn -0.00000000 -1.00000000 -0.00000000
vn -0.00000000 -1.00000000 -0.00000000
vn -0.00000000 -1.00000000 -0.00000000
vn -0.00000000 -1.00000000 -0.00000000
vn -0.00000000 -1.00000000 -0.00000000
vn -0.00000000 -1.00000000 -0.00000000
vn -0.00000000 -1.00000000 -0.00000000
vn -0.00000000 -1.00000000 -0.00000000
vn -0.00000000 -1.00000000 -0.00000000
vn -0.00000000 -1.00000000 -0.00000000
vn -0.00000000 -1.00000000 -0.00000000
vn -0.00000000 -1.00000000 -0.00000000
vn -0.00000000 -1.00000000 -0.00000000
vn -0.00000000 -1.00000000 -0.00000000
vn -0.00000000 -1.00000000 -0.00000000
vn -0.00000000 -1.00000000 -0.00000000
vn -0.00000000 -1.00000000 -0.00000000
vn -0.00000000 -1.00000000 -0.00000000
vn -0.00000000 -1.00000000 -0.00000000
vn -0.00000000 -1.00000000 -0.00000000
vn -0.00000000 -1.00000000 -0.00000000
vn -0.00000000 -1.00000000 -0.00000000
vn -0.00000000 -1.00000000 -0.00000000
vn -0.00000000 -1.00000000 -0.00000000
vn -0.00000000 -1.00000000 -0.00000000
vn -0.00000000 -1.00000000 -0.00000000
vn -0.00000000 -1.00000000 -0.00000000
vn -0.00000000 -1.00000000 -0.00000000
vn -0.00000000 -1.00000000 -0.00000000
vn -0.00000000 -1.00000000 -0.00000000
vn -0.00000000 -1.00000000 -0.00000000
vn -0.00000000 -1.00000000 -0.00000000
vn -0.00000000 -1.00000000 -0.00000000
vn -0.00000000 -1.00000000 -0.00000000
vn -0.00000000 -1.00000000 -0.00000000
vn -0.00000000 -1.00000000 -0.00000000
vn -0.42000000 -0.00000000 -0.90750000
vn -0.51560000 -0.00000000 -0.85680000
vn -0.60520000 -0.00000000 -0.79610000
vn -0.31940000 -0.00000000 -0.94760000
vn -0.68770000 -0.00000000 -0.72600000
vn -0.21540000 -0.00000000 -0.97650000
vn -0.10840000 -0.00000000 -0.99410000
vn -0.00000000 -0.00000000 -1.00000000
vn -0.72360000 -0.00000000 -0.69030000
vn -0.76220000 -0.00000000 0.64740000
vn -0.72360000 -0.00000000 0.69030000
vn -0.82780000 -0.00000000 0.56100000
vn -0.88350000 -0.00000000 0.46840000
vn -0.92900000 -0.00000000 0.37010000
vn -0.96360000 -0.00000000 0.26750000
vn -0.98690000 -0.00000000 0.16150000
vn -0.99850000 -0.00000000 0.05400000
vn -0.99850000 -0.00000000 -0.05400000
vn -0.76220000 -0.00000000 -0.64740000
vn -0.82770000 -0.00000000 -0.56120000
vn -0.88350000 -0.00000000 -0.46840000
vn -0.92910000 -0.00000000 -0.36990000
vn -0.96350000 -0.00000000 -0.26750000
vn -0.98690000 -0.00000000 -0.16150000
vn 0.41990000 -0.00000000 0.90760000
vn 0.51570000 -0.00000000 0.85680000
vn 0.60530000 -0.00000000 0.79600000
vn 0.10800000 -0.00000000 0.99420000
vn 0.21500000 -0.00000000 0.97660000
vn -0.21500000 -0.00000000 0.97660000
vn -0.60530000 -0.00000000 0.79600000
vn -0.51570000 -0.00000000 0.85680000
vn -0.68770000 -0.00000000 0.72600000
vn -0.42000000 -0.00000000 0.90750000
vn -0.31950000 -0.00000000 0.94760000
vn -0.10830000 -0.00000000 0.99410000
vn -0.00000000 -0.00000000 1.00000000
vn 0.31960000 -0.00000000 0.94760000
vn 0.68770000 -0.00000000 0.72600000
vn 0.76220000 -0.00000000 -0.64740000
vn 0.72360000 -0.00000000 -0.69030000
vn 0.82770000 -0.00000000 -0.56120000
vn 0.88350000 -0.00000000 -0.46840000
vn 0.92910000 -0.00000000 -0.36990000
vn 0.96360000 -0.00000000 -0.26730000
vn 0.98690000 -0.00000000 -0.16150000
vn 0.99850000 -0.00000000 -0.05400000
vn 0.99850000 -0.00000000 0.05400000
vn 0.98690000 -0.00000000 0.16150000
vn 0.88360000 -0.00000000 0.46830000
vn 0.72350000 -0.00000000 0.69030000
vn 0.76230000 -0.00000000 0.64730000
vn 0.82780000 -0.00000000 0.56110000
vn 0.92900000 -0.00000000 0.37000000
vn 0.96360000 -0.00000000 0.26750000
vn 0.60520000 -0.00000000 -0.79600000
vn 0.51560000 -0.00000000 -0.85680000
vn 0.68770000 -0.00000000 -0.72600000
vn 0.42020000 -0.00000000 -0.90740000
vn 0.31960000 -0.00000000 -0.94760000
vn 0.21540000 -0.00000000 -0.97650000
vn 0.10840000 -0.00000000 -0.99410000
vn 0.10810000 -0.00000000 -0.99410000
vn -0.00000000 -0.00000000 -1.00000000
vn 0.21500000 -0.00000000 -0.97660000
vn 0.31930000 -0.00000000 -0.94770000
vn 0.41990000 -0.00000000 -0.90760000
vn 0.51550000 -0.00000000 -0.85690000
vn 0.60520000 -0.00000000 -0.79610000
vn 0.68770000 -0.00000000 -0.72600000
vn 0.76220000 -0.00000000 -0.64740000
vn 0.82770000 -0.00000000 -0.56120000
vn 0.88350000 -0.00000000 -0.46840000
vn 0.92900000 -0.00000000 -0.37010000
vn 0.96360000 -0.00000000 -0.26750000
vn 0.98680000 -0.00000000 -0.16180000
vn 0.99850000 -0.00000000 -0.05410000
vn 0.99850000 -0.00000000 0.05410000
vn 0.98680000 -0.00000000 0.16180000
vn 0.96360000 -0.00000000 0.26750000
vn 0.92900000 -0.00000000 0.37010000
vn 0.88350000 -0.00000000 0.46840000
vn 0.82770000 -0.00000000 0.56120000
vn 0.68770000 -0.00000000 0.72600000
vn 0.76220000 -0.00000000 0.64740000
vn 0.60510000 -0.00000000 0.79610000
vn 0.51560000 -0.00000000 0.85680000
vn 0.41990000 -0.00000000 0.90760000
vn 0.31930000 -0.00000000 0.94760000
vn 0.21500000 -0.00000000 0.97660000
vn 0.10810000 -0.00000000 0.99410000
vn -0.10810000 -0.00000000 0.99410000
vn -0.00000000 -0.00000000 1.00000000
vn -0.21500000 -0.00000000 0.97660000
vn -0.31930000 -0.00000000 0.94760000
vn -0.41990000 -0.00000000 0.90760000
vn -0.51560000 -0.00000000 0.85680000
vn -0.60510000 -0.00000000 0.79610000
vn -0.68770000 -0.00000000 0.72600000
vn -0.76220000 -0.00000000 0.64740000
vn -0.82770000 -0.00000000 0.56120000
vn -0.88350000 -0.00000000 0.46840000
vn -0.92900000 -0.00000000 0.37010000
vn -0.96360000 -0.00000000 0.26750000
vn -0.98680000 -0.00000000 0.16180000
vn -0.99850000 -0.00000000 0.05410000
vn -0.99850000 -0.00000000 -0.05410000
vn -0.98680000 -0.00000000 -0.16180000
vn -0.96360000 -0.00000000 -0.26750000
vn -0.92900000 -0.00000000 -0.37010000
vn -0.88350000 -0.00000000 -0.46840000
vn -0.82770000 -0.00000000 -0.56120000
vn -0.68770000 -0.00000000 -0.72600000
vn -0.76220000 -0.00000000 -0.64740000
vn -0.60520000 -0.00000000 -0.79610000
vn -0.51550000 -0.00000000 -0.85690000
vn -0.41990000 -0.00000000 -0.90760000
vn -0.31930000 -0.00000000 -0.94770000
vn -0.21500000 -0.00000000 -0.97660000
vn -0.10810000 -0.00000000 -0.99410000
f 59//59 1//1 3//3
f 3//3 4//4 59//59
f 4//4 5//5 59//59
f 5//5 6//6 59//59
f 6//6 7//7 59//59
f 7//7 8//8 59//59
f 8//8 9//9 59//59
f 9//9 10//10 59//59
f 10//10 11//11 59//59
f 11//11 12//12 59//59
f 12//12 13//13 59//59
f 13//13 14//14 59//59
f 14//14 15//15 59//59
f 15//15 16//16 59//59
f 16//16 17//17 59//59
f 17//17 18//18 59//59
f 18//18 19//19 59//59
f 19//19 20//20 59//59
f 20//20 21//21 59//59
f 21//21 23//23 59//59
f 23//23 22//22 59//59
f 22//22 24//24 59//59
f 24//24 25//25 59//59
f 25//25 26//26 59//59
f 26//26 27//27 59//59
f 27//27 28//28 59//59
f 28//28 29//29 59//59
f 29//29 31//31 59//59
f 31//31 30//30 59//59
f 30//30 32//32 59//59
f 32//32 33//33 59//59
f 33//33 34//34 59//59
f 34//34 35//35 59//59
f 35//35 36//36 59//59
f 36//36 37//37 59//59
f 37//37 38//38 59//59
f 38//38 39//39 59//59
f 39//39 40//40 59//59
f 40//40 41//41 59//59
f 41//41 42//42 59//59
f 42//42 43//43 59//59
f 43//43 44//44 59//59
f 44//44 45//45 59//59
f 45//45 46//46 59//59
f 46//46 47//47 59//59
f 47//47 48//48 59//59
f 48//48 49//49 59//59
f 49//49 50//50 59//59
f 50//50 52//52 59//59
f 52//52 51//51 59//59
f 51//51 53//53 59//59
f 53//53 54//54 59//59
f 54//54 55//55 59//59
f 55//55 56//56 59//59
f 56//56 57//57 59//59
f 57//57 58//58 59//59
f 58//58 2//2 59//59
f 2//2 1//1 59//59
f 122//122 123//123 67//67
f 124//124 122//122 121//121
f 125//125 124//124 120//120
f 126//126 125//125 119//119
f 127//127 126//126 118//118
f 128//128 127//127 116//116
f 129//129 128//128 115//115
f 129//129 117//117 100//100
f 100//100 130//130 129//129
f 131//131 130//130 99//99
f 132//132 131//131 101//101
f 133//133 132//132 102//102
f 134//134 133//133 103//103
f 135//135 134//134 104//104
f 136//136 135//135 105//105
f 107//107 137//137 136//136
f 137//137 107//107 108//108
f 138//138 108//108 114//114
f 139//139 114//114 113//113
f 140//140 113//113 109//109
f 141//141 109//109 112//112
f 142//142 112//112 111//111
f 143//143 144//144 110//110
f 144//144 111//111 110//110
f 143//143 98//98 86//86
f 145//145 86//86 85//85
f 146//146 85//85 84//84
f 147//147 84//84 97//97
f 148//148 97//97 88//88
f 149//149 88//88 87//87
f 150//150 87//87 96//96
f 151//151 152//152 96//96
f 153//153 151//151 95//95
f 154//154 153//153 89//89
f 155//155 154//154 94//94
f 156//156 155//155 93//93
f 157//157 156//156 91//91
f 158//158 157//157 90//90
f 158//158 92//92 70//70
f 70//70 159//159 158//158
f 160//160 159//159 69//69
f 161//161 160//160 71//71
f 162//162 161//161 72//72
f 163//163 162//162 73//73
f 164//164 163//163 74//74
f 165//165 164//164 75//75
f 77//77 166//166 165//165
f 166//166 77//77 83//83
f 167//167 83//83 82//82
f 168//168 82//82 81//81
f 169//169 81//81 80//80
f 170//170 80//80 79//79
f 171//171 79//79 78//78
f 172//172 173//173 68//68
f 173//173 78//78 68//68
f 172//172 64//64 62//62
f 174//174 62//62 61//61
f 175//175 61//61 60//60
f 176//176 60//60 63//63
f 177//177 63//63 65//65
f 178//178 65//65 66//66
f 179//179 66//66 67//67
f 67//67 123//123 179//179
f 66//66 179//179 178//178
f 65//65 178//178 177//177
f 63//63 177//177 176//176
f 60//60 176//176 175//175
f 61//61 175//175 174//174
f 62//62 174//174 172//172
f 68//68 64//64 172//172
f 78//78 173//173 171//171
f 79//79 171//171 170//170
f 80//80 170//170 169//169
f 81//81 169//169 168//168
f 82//82 168//168 167//167
f 83//83 167//167 166//166
f 165//165 76//76 77//77
f 75//75 76//76 165//165
f 74//74 75//75 164//164
f 73//73 74//74 163//163
f 72//72 73//73 162//162
f 71//71 72//72 161//161
f 69//69 71//71 160//160
f 70//70 69//69 159//159
f 90//90 92//92 158//158
f 91//91 90//90 157//157
f 93//93 91//91 156//156
f 94//94 93//93 155//155
f 89//89 94//94 154//154
f 95//95 89//89 153//153
f 96//96 95//95 151//151
f 96//96 152//152 150//150
f 87//87 150//150 149//149
f 88//88 149//149 148//148
f 97//97 148//148 147//147
f 84//84 147//147 146//146
f 85//85 146//146 145//145
f 86//86 145//145 143//143
f 110//110 98//98 143//143
f 111//111 144//144 142//142
f 112//112 142//142 141//141
f 109//109 141//141 140//140
f 113//113 140//140 139//139
f 114//114 139//139 138//138
f 108//108 138//138 137//137
f 136//136 106//106 107//107
f 105//105 106//106 136//136
f 104//104 105//105 135//135
f 103//103 104//104 134//134
f 102//102 103//103 133//133
f 101//101 102//102 132//132
f 99//99 101//101 131//131
f 100//100 99//99 130//130
f 115//115 117//117 129//129
f 116//116 115//115 128//128
f 118//118 116//116 127//127
f 119//119 118//118 126//126
f 120//120 119//119 125//125
f 121//121 120//120 124//124
f 67//67 121//121 122//122

