mtllib material.mtl
usemtl 0.101961_0.101961_0.101961_0.000000_0.011
v 0.09000000 0.00000000 0.08540000
v 0.08997000 -0.00231700 0.08540000
v 0.08973200 -0.00694600 0.08540000
v 0.08925500 -0.01155600 0.08540000
v 0.08854200 -0.01613500 0.08540000
v 0.08759400 -0.02067200 0.08540000
v 0.08641400 -0.02515400 0.08540000
v 0.08500400 -0.02956900 0.08540000
v 0.08336900 -0.03390500 0.08540000
v 0.08151300 -0.03815200 0.08540000
v 0.07944100 -0.04229800 0.08540000
v 0.07715800 -0.04633100 0.08540000
v 0.07467100 -0.05024200 0.08540000
v 0.07198500 -0.05401900 0.08540000
v 0.06910900 -0.05765300 0.08540000
v 0.06605000 -0.06113500 0.08540000
v 0.06281500 -0.06445400 0.08540000
v 0.05941400 -0.06760200 0.08540000
v 0.05585500 -0.07057100 0.08540000
v 0.05214800 -0.07335300 0.08540000
v 0.04830300 -0.07594000 0.08540000
v 0.04432900 -0.07832600 0.08540000
v 0.04023800 -0.08050400 0.08540000
v 0.03604100 -0.08246800 0.08540000
v 0.03174800 -0.08421400 0.08540000
v 0.02737000 -0.08573700 0.08540000
v 0.02292000 -0.08703200 0.08540000
v 0.01841000 -0.08809700 0.08540000
v 0.01385000 -0.08892800 0.08540000
v 0.00925400 -0.08952300 0.08540000
v 0.00463300 -0.08988100 0.08540000
v 0.00000000 -0.09000000 0.08540000
v -0.00463300 -0.08988100 0.08540000
v -0.00925400 -0.08952300 0.08540000
v -0.01385000 -0.08892800 0.08540000
v -0.01841000 -0.08809700 0.08540000
v -0.02292000 -0.08703200 0.08540000
v -0.02737000 -0.08573700 0.08540000
v -0.03174800 -0.08421400 0.08540000
v -0.03604100 -0.08246800 0.08540000
v -0.04023800 -0.08050400 0.08540000
v -0.04432900 -0.07832600 0.08540000
v -0.04830300 -0.07594000 0.08540000
v -0.05214800 -0.07335300 0.08540000
v -0.05585500 -0.07057100 0.08540000
v -0.05941400 -0.06760200 0.08540000
v -0.06281500 -0.06445400 0.08540000
v -0.06605000 -0.06113500 0.08540000
v -0.06910900 -0.05765300 0.08540000
v -0.07198500 -0.05401900 0.08540000
v -0.07467100 -0.05024200 0.08540000
v -0.07715800 -0.04633100 0.08540000
v -0.07944100 -0.04229800 0.08540000
v -0.08151300 -0.03815200 0.08540000
v -0.08336900 -0.03390500 0.08540000
v -0.08500400 -0.02956900 0.08540000
v -0.08641400 -0.02515400 0.08540000
v -0.08759400 -0.02067200 0.08540000
v -0.08854200 -0.01613500 0.08540000
v -0.08925500 -0.01155600 0.08540000
v -0.08973200 -0.00694600 0.08540000
v -0.08997000 -0.00231700 0.08540000
v -0.08997000 0.00231700 0.08540000
v -0.08973200 0.00694600 0.08540000
v -0.08925500 0.01155600 0.08540000
v -0.08854200 0.01613500 0.08540000
v -0.08759400 0.02067200 0.08540000
v -0.08641400 0.02515400 0.08540000
v -0.08500400 0.02956900 0.08540000
v -0.08336900 0.03390500 0.08540000
v -0.08151300 0.03815200 0.08540000
v -0.07944100 0.04229800 0.08540000
v -0.07715800 0.04633100 0.08540000
v -0.07467100 0.05024200 0.08540000
v -0.07198500 0.05401900 0.08540000
v -0.06910900 0.05765300 0.08540000
v -0.06605000 0.06113500 0.08540000
v -0.06281500 0.06445400 0.08540000
v -0.05941400 0.06760200 0.08540000
v -0.05585500 0.07057100 0.08540000
v -0.05214800 0.07335300 0.08540000
v -0.04830300 0.07594000 0.08540000
v -0.04432900 0.07832600 0.08540000
v -0.04023800 0.08050400 0.08540000
v -0.03604100 0.08246900 0.08540000
v -0.03174800 0.08421500 0.08540000
v -0.02737000 0.08573700 0.08540000
v -0.02292000 0.08703200 0.08540000
v -0.01841000 0.08809700 0.08540000
v -0.01385000 0.08892800 0.08540000
v -0.00925400 0.08952300 0.08540000
v -0.00463300 0.08988100 0.08540000
v 0.00000000 0.09000000 0.08540000
v 0.00463300 0.08988100 0.08540000
v 0.00925400 0.08952300 0.08540000
v 0.01385000 0.08892800 0.08540000
v 0.01841000 0.08809700 0.08540000
v 0.02292000 0.08703200 0.08540000
v 0.02737000 0.08573700 0.08540000
v 0.03174800 0.08421500 0.08540000
v 0.03604100 0.08246900 0.08540000
v 0.04023800 0.08050400 0.08540000
v 0.04432900 0.07832600 0.08540000
v 0.04830300 0.07594000 0.08540000
v 0.05214800 0.07335300 0.08540000
v 0.05585500 0.07057100 0.08540000
v 0.05941400 0.06760200 0.08540000
v 0.06281500 0.06445400 0.08540000
v 0.06605000 0.06113500 0.08540000
v 0.06910900 0.05765300 0.08540000
v 0.07198500 0.05401900 0.08540000
v 0.07467100 0.05024200 0.08540000
v 0.07715800 0.04633100 0.08540000
v 0.07944100 0.04229800 0.08540000
v 0.08151300 0.03815200 0.08540000
v 0.08336900 0.03390500 0.08540000
v 0.08500400 0.02956900 0.08540000
v 0.08641400 0.02515400 0.08540000
v 0.08759400 0.02067200 0.08540000
v 0.08854200 0.01613500 0.08540000
v 0.08925500 0.01155600 0.08540000
v 0.08973200 0.00694600 0.08540000
v 0.00925400 -0.08952300 0.10740000
v 0.00000000 -0.09000000 0.10740000
v 0.01841000 -0.08809700 0.10740000
v 0.02737000 -0.08573700 0.10740000
v 0.03604100 -0.08246800 0.10740000
v 0.04432900 -0.07832600 0.10740000
v 0.05214800 -0.07335300 0.10740000
v 0.05941400 -0.06760200 0.10740000
v 0.06605000 -0.06113500 0.10740000
v 0.07198500 -0.05401900 0.10740000
v 0.07715800 -0.04633100 0.10740000
v 0.08151300 -0.03815200 0.10740000
v 0.08500400 -0.02956900 0.10740000
v 0.08759400 -0.02067200 0.10740000
v 0.08925500 -0.01155600 0.10740000
v 0.08997000 -0.00231700 0.10740000
v 0.08973200 0.00694600 0.10740000
v 0.08854200 0.01613500 0.10740000
v 0.08641400 0.02515400 0.10740000
v 0.08336900 0.03390500 0.10740000
v 0.07944100 0.04229800 0.10740000
v 0.07467100 0.05024200 0.10740000
v 0.06910900 0.05765300 0.10740000
v 0.06281500 0.06445400 0.10740000
v 0.05585500 0.07057100 0.10740000
v 0.04830300 0.07594000 0.10740000
v 0.04023800 0.08050400 0.10740000
v 0.03174800 0.08421500 0.10740000
v 0.02292000 0.08703200 0.10740000
v 0.01385000 0.08892800 0.10740000
v 0.00463300 0.08988100 0.10740000
v -0.00463300 0.08988100 0.10740000
v -0.01385000 0.08892800 0.10740000
v -0.02292000 0.08703200 0.10740000
v -0.03174800 0.08421500 0.10740000
v -0.04023800 0.08050400 0.10740000
v -0.04830300 0.07594000 0.10740000
v -0.05585500 0.07057100 0.10740000
v -0.06281500 0.06445400 0.10740000
v -0.06910900 0.05765300 0.10740000
v -0.07467100 0.05024200 0.10740000
v -0.07944100 0.04229800 0.10740000
v -0.08336900 0.03390500 0.10740000
v -0.08641400 0.02515400 0.10740000
v -0.08854200 0.01613500 0.10740000
v -0.08973200 0.00694600 0.10740000
v -0.08997000 -0.00231700 0.10740000
v -0.08925500 -0.01155600 0.10740000
v -0.08759400 -0.02067200 0.10740000
v -0.08500400 -0.02956900 0.10740000
v -0.08151300 -0.03815200 0.10740000
v -0.07715800 -0.04633100 0.10740000
v -0.07198500 -0.05401900 0.10740000
v -0.06605000 -0.06113500 0.10740000
v -0.05941400 -0.06760200 0.10740000
v -0.05214800 -0.07335300 0.10740000
v -0.04432900 -0.07832600 0.10740000
v -0.03604100 -0.08246800 0.10740000
v -0.02737000 -0.08573700 0.10740000
v -0.01841000 -0.08809700 0.10740000
v -0.00925400 -0.08952300 0.10740000
vn 1.00000000 -0.00000000 -0.00000000
vn 0.99970000 -0.02580000 -0.00000000
vn 0.99700000 -0.07720000 -0.00000000
vn 0.99170000 -0.12840000 -0.00000000
vn 0.98380000 -0.17930000 -0.00000000
vn 0.97330000 -0.22970000 -0.00000000
vn 0.96010000 -0.27950000 0.00040000
vn 0.94450000 -0.32850000 -0.00000000
vn 0.92630000 -0.37670000 -0.00000000
vn 0.90570000 -0.42390000 -0.00000000
vn 0.88270000 -0.47000000 -0.00000000
vn 0.85730000 -0.51480000 -0.00000000
vn 0.82970000 -0.55820000 -0.00000000
vn 0.79980000 -0.60020000 -0.00000000
vn 0.76790000 -0.64060000 0.00020000
vn 0.73390000 -0.67930000 -0.00000000
vn 0.69790000 -0.71620000 0.00020000
vn 0.66010000 -0.75110000 -0.00000000
vn 0.62060000 -0.78410000 0.00020000
vn 0.57940000 -0.81500000 -0.00000000
vn 0.53670000 -0.84380000 0.00020000
vn 0.49250000 -0.87030000 -0.00000000
vn 0.44710000 -0.89450000 0.00020000
vn 0.40050000 -0.91630000 -0.00000000
vn 0.35280000 -0.93570000 -0.00010000
vn 0.30410000 -0.95260000 -0.00000000
vn 0.25470000 -0.96700000 -0.00000000
vn 0.20450000 -0.97890000 -0.00000000
vn 0.15390000 -0.98810000 0.00020000
vn 0.10280000 -0.99470000 -0.00000000
vn 0.05150000 -0.99870000 -0.00000000
vn -0.00000000 -1.00000000 -0.00000000
vn -0.05150000 -0.99870000 -0.00000000
vn -0.10280000 -0.99470000 -0.00000000
vn -0.15390000 -0.98810000 0.00020000
vn -0.20450000 -0.97890000 -0.00000000
vn -0.25470000 -0.96700000 0.00010000
vn -0.30410000 -0.95260000 -0.00000000
vn -0.35280000 -0.93570000 -0.00010000
vn -0.40050000 -0.91630000 -0.00000000
vn -0.44710000 -0.89450000 0.00010000
vn -0.49250000 -0.87030000 -0.00000000
vn -0.53670000 -0.84380000 0.00020000
vn -0.57940000 -0.81500000 -0.00000000
vn -0.62060000 -0.78410000 0.00020000
vn -0.66020000 -0.75110000 -0.00000000
vn -0.69790000 -0.71620000 -0.00000000
vn -0.73390000 -0.67930000 -0.00000000
vn -0.76790000 -0.64060000 0.00010000
vn -0.79980000 -0.60020000 -0.00000000
vn -0.82970000 -0.55820000 -0.00000000
vn -0.85730000 -0.51480000 -0.00000000
vn -0.88270000 -0.47000000 0.00010000
vn -0.90570000 -0.42390000 -0.00000000
vn -0.92630000 -0.37670000 0.00010000
vn -0.94450000 -0.32850000 -0.00000000
vn -0.96010000 -0.27950000 0.00040000
vn -0.97330000 -0.22970000 -0.00000000
vn -0.98380000 -0.17930000 -0.00000000
vn -0.99170000 -0.12840000 -0.00000000
vn -0.99700000 -0.07720000 -0.00000000
vn -0.99970000 -0.02580000 -0.00000000
vn -0.99970000 0.02570000 0.00010000
vn -0.99700000 0.07720000 -0.00000000
vn -0.99170000 0.12840000 0.00010000
vn -0.98380000 0.17930000 -0.00000000
vn -0.97330000 0.22970000 0.00010000
vn -0.96010000 0.27950000 -0.00000000
vn -0.94450000 0.32850000 -0.00000000
vn -0.92630000 0.37670000 -0.00000000
vn -0.90570000 0.42390000 0.00020000
vn -0.88270000 0.47000000 -0.00000000
vn -0.85730000 0.51480000 -0.00000000
vn -0.82970000 0.55820000 -0.00000000
vn -0.79980000 0.60020000 -0.00000000
vn -0.76790000 0.64060000 -0.00000000
vn -0.73390000 0.67930000 -0.00000000
vn -0.69790000 0.71620000 -0.00000000
vn -0.66020000 0.75110000 0.00020000
vn -0.62060000 0.78410000 -0.00000000
vn -0.57940000 0.81500000 0.00020000
vn -0.53670000 0.84380000 -0.00000000
vn -0.49250000 0.87030000 -0.00000000
vn -0.44710000 0.89450000 -0.00000000
vn -0.40050000 0.91630000 0.00020000
vn -0.35270000 0.93570000 -0.00000000
vn -0.30410000 0.95260000 -0.00010000
vn -0.25470000 0.96700000 -0.00000000
vn -0.20460000 0.97890000 0.00020000
vn -0.15390000 0.98810000 -0.00000000
vn -0.10280000 0.99470000 0.00010000
vn -0.05150000 0.99870000 -0.00000000
vn -0.00000000 1.00000000 -0.00000000
vn 0.05150000 0.99870000 -0.00000000
vn 0.10280000 0.99470000 0.00010000
vn 0.15390000 0.98810000 -0.00000000
vn 0.20460000 0.97890000 0.00020000
vn 0.25470000 0.96700000 -0.00000000
vn 0.30410000 0.95260000 -0.00010000
vn 0.35270000 0.93570000 -0.00000000
vn 0.40050000 0.91630000 0.00020000
vn 0.44710000 0.89450000 -0.00000000
vn 0.49250000 0.87030000 -0.00000000
vn 0.53670000 0.84380000 -0.00000000
vn 0.57940000 0.81500000 0.00020000
vn 0.62060000 0.78410000 -0.00000000
vn 0.66020000 0.75110000 -0.00000000
vn 0.69790000 0.71620000 -0.00000000
vn 0.73390000 0.67930000 0.00020000
vn 0.76790000 0.64060000 -0.00000000
vn 0.79980000 0.60020000 -0.00000000
vn 0.82970000 0.55820000 -0.00000000
vn 0.85730000 0.51480000 -0.00000000
vn 0.88270000 0.47000000 -0.00000000
vn 0.90570000 0.42390000 0.00020000
vn 0.92630000 0.37670000 -0.00000000
vn 0.94450000 0.32850000 -0.00000000
vn 0.96010000 0.27950000 -0.00000000
vn 0.97330000 0.22970000 0.00010000
vn 0.98380000 0.17930000 -0.00000000
vn 0.99170000 0.12840000 0.00010000
vn 0.99700000 0.07720000 -0.00000000
vn 0.10280000 -0.99470000 -0.00000000
vn -0.00000000 -1.00000000 -0.00000000
vn 0.20460000 -0.97890000 -0.00000000
vn 0.30410000 -0.95260000 -0.00000000
vn 0.40050000 -0.91630000 -0.00000000
vn 0.49250000 -0.87030000 -0.00000000
vn 0.57940000 -0.81500000 -0.00000000
vn 0.66020000 -0.75110000 -0.00000000
vn 0.73390000 -0.67930000 -0.00000000
vn 0.79980000 -0.60020000 -0.00000000
vn 0.85730000 -0.51480000 -0.00000000
vn 0.90570000 -0.42390000 -0.00000000
vn 0.94450000 -0.32850000 -0.00000000
vn 0.97330000 -0.22970000 -0.00000000
vn 0.99170000 -0.12840000 -0.00000000
vn 0.99970000 -0.02580000 -0.00000000
vn 0.99700000 0.07720000 -0.00000000
vn 0.98380000 0.17930000 -0.00000000
vn 0.96010000 0.27950000 -0.00000000
vn 0.92630000 0.37670000 -0.00000000
vn 0.88270000 0.47000000 -0.00000000
vn 0.82970000 0.55820000 -0.00000000
vn 0.76790000 0.64060000 -0.00000000
vn 0.69790000 0.71620000 -0.00000000
vn 0.62060000 0.78410000 -0.00000000
vn 0.53670000 0.84380000 -0.00000000
vn 0.44710000 0.89450000 -0.00000000
vn 0.35280000 0.93570000 -0.00000000
vn 0.25470000 0.96700000 -0.00000000
vn 0.15390000 0.98810000 -0.00000000
vn 0.05150000 0.99870000 -0.00000000
vn -0.05150000 0.99870000 -0.00000000
vn -0.15390000 0.98810000 -0.00000000
vn -0.25470000 0.96700000 -0.00000000
vn -0.35280000 0.93570000 -0.00000000
vn -0.44710000 0.89450000 -0.00000000
vn -0.53670000 0.84380000 -0.00000000
vn -0.62060000 0.78410000 -0.00000000
vn -0.69790000 0.71620000 -0.00000000
vn -0.76790000 0.64060000 -0.00000000
vn -0.82970000 0.55820000 -0.00000000
vn -0.88270000 0.47000000 -0.00000000
vn -0.92630000 0.37670000 -0.00000000
vn -0.96010000 0.27950000 -0.00000000
vn -0.98380000 0.17930000 -0.00000000
vn -0.99700000 0.07720000 -0.00000000
vn -0.99970000 -0.02580000 -0.00000000
vn -0.99170000 -0.12840000 -0.00000000
vn -0.97330000 -0.22970000 -0.00000000
vn -0.94450000 -0.32850000 -0.00000000
vn -0.90570000 -0.42390000 -0.00000000
vn -0.85730000 -0.51480000 -0.00000000
vn -0.79980000 -0.60020000 -0.00000000
vn -0.73390000 -0.67930000 -0.00000000
vn -0.66020000 -0.75110000 -0.00000000
vn -0.57940000 -0.81500000 -0.00000000
vn -0.49250000 -0.87030000 -0.00000000
vn -0.40050000 -0.91630000 -0.00000000
vn -0.30410000 -0.95260000 -0.00000000
vn -0.20460000 -0.97890000 -0.00000000
vn -0.10280000 -0.99470000 -0.00000000
f 123//123 124//124 31//31
f 124//124 32//32 31//31
f 123//123 30//30 29//29
f 29//29 125//125 123//123
f 126//126 125//125 27//27
f 125//125 28//28 27//27
f 126//126 26//26 25//25
f 25//25 127//127 126//126
f 127//127 24//24 23//23
f 23//23 128//128 127//127
f 129//129 128//128 21//21
f 128//128 22//22 21//21
f 130//130 129//129 19//19
f 129//129 20//20 19//19
f 130//130 18//18 17//17
f 17//17 131//131 130//130
f 132//132 131//131 15//15
f 131//131 16//16 15//15
f 133//133 132//132 13//13
f 132//132 14//14 13//13
f 134//134 133//133 11//11
f 133//133 12//12 11//11
f 135//135 134//134 9//9
f 134//134 10//10 9//9
f 136//136 135//135 7//7
f 135//135 8//8 7//7
f 136//136 6//6 5//5
f 5//5 137//137 136//136
f 138//138 137//137 3//3
f 137//137 4//4 3//3
f 139//139 138//138 1//1
f 138//138 2//2 1//1
f 140//140 139//139 121//121
f 139//139 122//122 121//121
f 140//140 120//120 119//119
f 119//119 141//141 140//140
f 141//141 118//118 117//117
f 117//117 142//142 141//141
f 143//143 142//142 115//115
f 142//142 116//116 115//115
f 143//143 114//114 113//113
f 113//113 144//144 143//143
f 145//145 144//144 111//111
f 144//144 112//112 111//111
f 145//145 110//110 109//109
f 109//109 146//146 145//145
f 147//147 146//146 107//107
f 146//146 108//108 107//107
f 147//147 106//106 105//105
f 105//105 148//148 147//147
f 148//148 104//104 103//103
f 103//103 149//149 148//148
f 150//150 149//149 101//101
f 149//149 102//102 101//101
f 150//150 100//100 99//99
f 99//99 151//151 150//150
f 152//152 151//151 97//97
f 151//151 98//98 97//97
f 152//152 96//96 95//95
f 95//95 153//153 152//152
f 153//153 94//94 93//93
f 93//93 154//154 153//153
f 155//155 154//154 91//91
f 154//154 92//92 91//91
f 155//155 90//90 89//89
f 89//89 156//156 155//155
f 157//157 156//156 87//87
f 156//156 88//88 87//87
f 158//158 157//157 85//85
f 157//157 86//86 85//85
f 159//159 158//158 83//83
f 158//158 84//84 83//83
f 159//159 82//82 81//81
f 81//81 160//160 159//159
f 160//160 80//80 79//79
f 79//79 161//161 160//160
f 161//161 78//78 77//77
f 77//77 162//162 161//161
f 162//162 76//76 75//75
f 75//75 163//163 162//162
f 163//163 74//74 73//73
f 73//73 164//164 163//163
f 164//164 72//72 71//71
f 71//71 165//165 164//164
f 165//165 70//70 69//69
f 69//69 166//166 165//165
f 167//167 166//166 67//67
f 166//166 68//68 67//67
f 167//167 66//66 65//65
f 65//65 168//168 167//167
f 169//169 168//168 63//63
f 168//168 64//64 63//63
f 170//170 169//169 61//61
f 169//169 62//62 61//61
f 170//170 60//60 59//59
f 59//59 171//171 170//170
f 172//172 171//171 57//57
f 171//171 58//58 57//57
f 172//172 56//56 55//55
f 55//55 173//173 172//172
f 174//174 173//173 53//53
f 173//173 54//54 53//53
f 175//175 174//174 51//51
f 174//174 52//52 51//51
f 175//175 50//50 49//49
f 49//49 176//176 175//175
f 177//177 176//176 47//47
f 176//176 48//48 47//47
f 177//177 46//46 45//45
f 45//45 178//178 177//177
f 179//179 178//178 43//43
f 178//178 44//44 43//43
f 180//180 179//179 41//41
f 179//179 42//42 41//41
f 180//180 40//40 39//39
f 39//39 181//181 180//180
f 181//181 38//38 37//37
f 37//37 182//182 181//181
f 182//182 36//36 35//35
f 35//35 183//183 182//182
f 183//183 34//34 33//33
f 33//33 124//124 183//183
f 33//33 32//32 124//124
f 35//35 34//34 183//183
f 37//37 36//36 182//182
f 39//39 38//38 181//181
f 41//41 40//40 180//180
f 43//43 42//42 179//179
f 45//45 44//44 178//178
f 47//47 46//46 177//177
f 49//49 48//48 176//176
f 51//51 50//50 175//175
f 53//53 52//52 174//174
f 55//55 54//54 173//173
f 57//57 56//56 172//172
f 59//59 58//58 171//171
f 61//61 60//60 170//170
f 63//63 62//62 169//169
f 65//65 64//64 168//168
f 67//67 66//66 167//167
f 69//69 68//68 166//166
f 71//71 70//70 165//165
f 73//73 72//72 164//164
f 75//75 74//74 163//163
f 77//77 76//76 162//162
f 79//79 78//78 161//161
f 81//81 80//80 160//160
f 83//83 82//82 159//159
f 85//85 84//84 158//158
f 87//87 86//86 157//157
f 89//89 88//88 156//156
f 91//91 90//90 155//155
f 93//93 92//92 154//154
f 95//95 94//94 153//153
f 97//97 96//96 152//152
f 99//99 98//98 151//151
f 101//101 100//100 150//150
f 103//103 102//102 149//149
f 105//105 104//104 148//148
f 107//107 106//106 147//147
f 109//109 108//108 146//146
f 111//111 110//110 145//145
f 113//113 112//112 144//144
f 115//115 114//114 143//143
f 117//117 116//116 142//142
f 119//119 118//118 141//141
f 121//121 120//120 140//140
f 1//1 122//122 139//139
f 3//3 2//2 138//138
f 5//5 4//4 137//137
f 7//7 6//6 136//136
f 9//9 8//8 135//135
f 11//11 10//10 134//134
f 13//13 12//12 133//133
f 15//15 14//14 132//132
f 17//17 16//16 131//131
f 19//19 18//18 130//130
f 21//21 20//20 129//129
f 23//23 22//22 128//128
f 25//25 24//24 127//127
f 27//27 26//26 126//126
f 29//29 28//28 125//125
f 31//31 30//30 123//123

