mtllib material.mtl
usemtl ID30.001
v -0.03387200 0.03678600 0.42879800
v -0.03387200 0.03678600 0.42879800
v -0.02735600 0.04185800 0.42879800
v -0.02009300 0.04578800 0.42879800
v -0.02009300 0.04578800 0.42879800
v -0.02009300 0.04578800 0.42879800
v -0.02009300 -0.04578900 0.42879800
v -0.02735600 -0.04185900 0.42879800
v -0.02735600 -0.04185900 0.42879800
v 0.04931000 0.00822900 0.42879800
v 0.04931000 0.00822900 0.42879800
v -0.01228200 0.04847000 0.42879800
v -0.01228200 0.04847000 0.42879800
v -0.01228200 0.04847000 0.42879800
v -0.03946500 0.03071100 0.42879700
v -0.03946500 0.03071100 0.42879700
v -0.03946500 0.03071100 0.42879700
v -0.00413700 0.04982900 0.42879800
v -0.04398200 0.02379800 0.42879800
v -0.04398200 0.02379800 0.42879800
v -0.04729900 0.01623500 0.42879800
v -0.04729900 0.01623500 0.42879800
v 0.00412100 0.04982900 0.42879800
v 0.00412100 0.04982900 0.42879800
v -0.04932600 0.00822900 0.42879700
v -0.04932600 0.00822900 0.42879700
v -0.04932600 0.00822900 0.42879700
v 0.01226600 0.04847000 0.42879800
v 0.01226600 0.04847000 0.42879800
v -0.05000800 -0.00000000 0.42879800
v -0.05000800 -0.00000000 0.42879800
v -0.05000800 -0.00000000 0.42879800
v 0.02007700 0.04578800 0.42879800
v 0.02007700 0.04578800 0.42879800
v 0.02733900 0.04185900 0.42879800
v 0.02733900 0.04185900 0.42879800
v -0.04932600 -0.00822900 0.42879700
v -0.04932600 -0.00822900 0.42879700
v -0.04932600 -0.00822900 0.42879700
v 0.04396500 0.02379700 0.42879800
v -0.03946500 -0.03071100 0.42879800
v 0.03944900 0.03071100 0.42879800
v -0.04398200 -0.02379700 0.42879800
v -0.04729900 -0.01623500 0.42879800
v -0.04729900 -0.01623500 0.42879800
v 0.03385600 0.03678600 0.42879800
v 0.04999200 0.00000000 0.42879800
v -0.03387200 -0.03678600 0.42879800
v 0.04728300 0.01623500 0.42879700
v 0.04728300 0.01623500 0.42879700
v 0.04728300 -0.01623500 0.42879800
v 0.04396600 -0.02379800 0.42879800
v 0.00412000 -0.04982900 0.42879800
v 0.04931000 -0.00823000 0.42879800
v -0.00413700 -0.04982900 0.42879800
v -0.01228300 -0.04847000 0.42879800
v 0.02007600 -0.04578900 0.42879800
v 0.02007600 -0.04578900 0.42879800
v 0.03385600 -0.03678600 0.42879800
v 0.03385600 -0.03678600 0.42879800
v 0.02733900 -0.04185800 0.42879700
v 0.03944900 -0.03071100 0.42879800
v 0.03944900 -0.03071100 0.42879800
v 0.01226600 -0.04847000 0.42879800
v 0.01226600 -0.04847000 0.42879800
v 0.05817400 0.04732500 0.10499800
v 0.05817400 0.04732500 0.10499800
v 0.05817400 0.04732500 0.10499800
v 0.05817400 0.04732500 0.10499800
v 0.05118600 0.05480900 0.10499800
v 0.04325600 0.06126100 0.10499700
v 0.04325600 0.06126100 0.10499700
v -0.07500800 -0.00000000 0.10499800
v 0.02508600 -0.07067500 0.10499800
v -0.07430800 0.01022200 0.10499700
v -0.07430800 0.01022200 0.10499700
v 0.03451500 0.06658000 0.10499800
v 0.03451500 0.06658000 0.10499800
v 0.02512700 0.07066200 0.10499800
v 0.02512700 0.07066200 0.10499800
v 0.01526400 0.07342800 0.10499800
v 0.01526400 0.07342800 0.10499800
v 0.01526400 0.07342800 0.10499800
v 0.06408000 0.03895500 0.10499800
v 0.06408000 0.03895500 0.10499800
v 0.00511400 0.07482500 0.10499800
v 0.00511400 0.07482500 0.10499800
v 0.06879000 0.02986100 0.10499800
v 0.06879000 0.02986100 0.10499800
v -0.00511800 0.07482500 0.10499800
v -0.01524900 0.07343400 0.10499800
v 0.07221500 0.02021400 0.10499800
v 0.07429100 0.01022200 0.10499800
v 0.07499100 0.00000000 0.10499800
v -0.02510300 0.07067500 0.10499800
v -0.03449600 0.06659900 0.10499800
v -0.03449600 0.06659900 0.10499800
v 0.07429200 -0.01022200 0.10499800
v 0.07429200 -0.01022200 0.10499800
v -0.05817800 0.04734000 0.10499800
v -0.05817800 0.04734000 0.10499800
v 0.06406200 -0.03898500 0.10499800
v 0.06406200 -0.03898500 0.10499800
v -0.05119800 0.05481500 0.10499800
v 0.06877300 -0.02989900 0.10499800
v 0.07220500 -0.02025100 0.10499700
v 0.07220500 -0.02025100 0.10499700
v -0.04325000 0.06127900 0.10499800
v 0.04323300 -0.06128000 0.10499700
v -0.06878900 0.02989900 0.10499800
v -0.07222200 0.02025100 0.10499800
v -0.07222200 0.02025100 0.10499800
v 0.05816200 -0.04734100 0.10499800
v 0.05816200 -0.04734100 0.10499800
v -0.06407800 0.03898500 0.10499800
v 0.05118100 -0.05481500 0.10499800
v -0.07430800 -0.01022200 0.10499700
v 0.01523200 -0.07343400 0.10499800
v 0.03447900 -0.06659900 0.10499800
v 0.03447900 -0.06659900 0.10499800
v -0.06409700 -0.03895600 0.10499700
v -0.06409700 -0.03895600 0.10499700
v -0.01528100 -0.07342800 0.10499800
v -0.01528100 -0.07342800 0.10499800
v -0.06880600 -0.02986100 0.10499800
v -0.06880600 -0.02986100 0.10499800
v 0.00510200 -0.07482500 0.10499800
v 0.00510200 -0.07482500 0.10499800
v -0.07223100 -0.02021400 0.10499700
v -0.07223100 -0.02021400 0.10499700
v -0.04327200 -0.06126100 0.10499800
v -0.05819100 -0.04732600 0.10499700
v -0.05819100 -0.04732600 0.10499700
v -0.05120300 -0.05480900 0.10499800
v -0.03453200 -0.06658000 0.10499700
v -0.03453200 -0.06658000 0.10499700
v -0.02514300 -0.07066200 0.10499800
v -0.02514300 -0.07066200 0.10499800
v -0.00513100 -0.07482500 0.10499700
v -0.00513100 -0.07482500 0.10499700
vn -0.00000000 0.00010000 1.00000000
vn 0.00010000 -0.00020000 1.00000000
vn -0.00000000 0.00010000 1.00000000
vn -0.00000000 0.00010000 1.00000000
vn 0.00010000 -0.00020000 1.00000000
vn 0.00010000 -0.00010000 1.00000000
vn -0.00000000 -0.00000000 1.00000000
vn -0.00010000 0.00010000 1.00000000
vn -0.00000000 -0.00000000 1.00000000
vn -0.00010000 0.00010000 1.00000000
vn -0.00000000 -0.00000000 1.00000000
vn 0.00010000 -0.00010000 1.00000000
vn -0.00010000 0.00020000 1.00000000
vn -0.00000000 -0.00000000 1.00000000
vn 0.00010000 -0.00010000 1.00000000
vn 0.00010000 -0.00020000 1.00000000
vn -0.00010000 0.00020000 1.00000000
vn -0.00000000 -0.00000000 1.00000000
vn -0.00000000 -0.00000000 1.00000000
vn -0.00010000 0.00020000 1.00000000
vn 0.00010000 -0.00010000 1.00000000
vn -0.00000000 -0.00000000 1.00000000
vn 0.00010000 -0.00010000 1.00000000
vn -0.00000000 -0.00000000 1.00000000
vn 0.00010000 -0.00010000 1.00000000
vn -0.00000000 -0.00000000 1.00000000
vn -0.00000000 0.00010000 1.00000000
vn -0.00000000 0.00010000 1.00000000
vn -0.00000000 -0.00000000 1.00000000
vn -0.00000000 -0.00010000 1.00000000
vn -0.00000000 0.00010000 1.00000000
vn -0.00000000 -0.00000000 1.00000000
vn -0.00000000 -0.00010000 1.00000000
vn -0.00000000 -0.00000000 1.00000000
vn -0.00000000 -0.00000000 1.00000000
vn -0.00010000 0.00010000 1.00000000
vn -0.00000000 -0.00010000 1.00000000
vn -0.00010000 0.00010000 1.00000000
vn -0.00000000 -0.00000000 1.00000000
vn -0.00000000 -0.00000000 1.00000000
vn -0.00000000 -0.00000000 1.00000000
vn -0.00000000 -0.00000000 1.00000000
vn -0.00000000 -0.00000000 1.00000000
vn -0.00010000 0.00010000 1.00000000
vn -0.00000000 -0.00000000 1.00000000
vn -0.00000000 -0.00000000 1.00000000
vn -0.00000000 -0.00000000 1.00000000
vn -0.00000000 -0.00000000 1.00000000
vn -0.00010000 0.00010000 1.00000000
vn -0.00000000 -0.00000000 1.00000000
vn -0.00000000 -0.00000000 1.00000000
vn -0.00000000 -0.00000000 1.00000000
vn -0.00000000 -0.00000000 1.00000000
vn -0.00000000 -0.00000000 1.00000000
vn -0.00000000 -0.00000000 1.00000000
vn -0.00000000 -0.00000000 1.00000000
vn 0.00010000 -0.00010000 1.00000000
vn -0.00010000 0.00010000 1.00000000
vn 0.00010000 -0.00010000 1.00000000
vn -0.00010000 0.00010000 1.00000000
vn -0.00010000 0.00010000 1.00000000
vn -0.00000000 -0.00000000 1.00000000
vn 0.00010000 -0.00010000 1.00000000
vn 0.00010000 -0.00010000 1.00000000
vn -0.00000000 -0.00000000 1.00000000
vn -0.00030000 -0.00030000 -1.00000000
vn -0.00000000 -0.00000000 -1.00000000
vn 0.00010000 0.00010000 -1.00000000
vn -0.00000000 -0.00010000 -1.00000000
vn -0.00000000 -0.00010000 -1.00000000
vn -0.00030000 -0.00030000 -1.00000000
vn -0.00000000 -0.00010000 -1.00000000
vn -0.00000000 -0.00000000 -1.00000000
vn -0.00000000 -0.00000000 -1.00000000
vn -0.00000000 -0.00000000 -1.00000000
vn -0.00000000 0.00010000 -1.00000000
vn 0.00010000 0.00010000 -1.00000000
vn -0.00030000 -0.00030000 -1.00000000
vn -0.00000000 -0.00000000 -1.00000000
vn 0.00010000 0.00010000 -1.00000000
vn -0.00000000 -0.00000000 -1.00000000
vn -0.00010000 -0.00010000 -1.00000000
vn 0.00010000 0.00010000 -1.00000000
vn 0.00010000 0.00010000 -1.00000000
vn -0.00000000 -0.00000000 -1.00000000
vn -0.00000000 -0.00000000 -1.00000000
vn -0.00010000 -0.00010000 -1.00000000
vn -0.00000000 -0.00000000 -1.00000000
vn -0.00010000 -0.00010000 -1.00000000
vn -0.00000000 -0.00000000 -1.00000000
vn -0.00000000 -0.00000000 -1.00000000
vn -0.00000000 -0.00000000 -1.00000000
vn -0.00000000 -0.00000000 -1.00000000
vn -0.00000000 -0.00000000 -1.00000000
vn -0.00000000 -0.00000000 -1.00000000
vn -0.00000000 0.00010000 -1.00000000
vn -0.00000000 -0.00000000 -1.00000000
vn -0.00000000 0.00010000 -1.00000000
vn -0.00000000 -0.00000000 -1.00000000
vn -0.00000000 -0.00000000 -1.00000000
vn -0.00000000 -0.00010000 -1.00000000
vn -0.00000000 -0.00010000 -1.00000000
vn -0.00000000 -0.00000000 -1.00000000
vn -0.00000000 -0.00000000 -1.00000000
vn -0.00000000 -0.00000000 -1.00000000
vn -0.00000000 0.00010000 -1.00000000
vn -0.00000000 -0.00000000 -1.00000000
vn -0.00000000 -0.00000000 -1.00000000
vn -0.00000000 -0.00000000 -1.00000000
vn -0.00000000 -0.00000000 -1.00000000
vn -0.00000000 -0.00000000 -1.00000000
vn -0.00000000 0.00010000 -1.00000000
vn -0.00000000 -0.00010000 -1.00000000
vn -0.00000000 -0.00000000 -1.00000000
vn -0.00000000 -0.00000000 -1.00000000
vn -0.00000000 -0.00000000 -1.00000000
vn -0.00000000 -0.00000000 -1.00000000
vn -0.00000000 -0.00000000 -1.00000000
vn -0.00000000 -0.00000000 -1.00000000
vn -0.00000000 0.00010000 -1.00000000
vn -0.00000000 -0.00000000 -1.00000000
vn -0.00010000 -0.00010000 -1.00000000
vn -0.00010000 -0.00010000 -1.00000000
vn -0.00000000 -0.00000000 -1.00000000
vn -0.00000000 -0.00000000 -1.00000000
vn -0.00010000 -0.00010000 -1.00000000
vn -0.00010000 -0.00010000 -1.00000000
vn -0.00000000 -0.00000000 -1.00000000
vn -0.00000000 -0.00000000 -1.00000000
vn -0.00010000 -0.00010000 -1.00000000
vn -0.00000000 -0.00000000 -1.00000000
vn -0.00000000 -0.00000000 -1.00000000
vn 0.00010000 0.00010000 -1.00000000
vn -0.00000000 -0.00000000 -1.00000000
vn 0.00010000 0.00010000 -1.00000000
vn -0.00000000 -0.00000000 -1.00000000
vn -0.00000000 -0.00000000 -1.00000000
vn 0.00010000 0.00010000 -1.00000000
vn -0.00010000 -0.00010000 -1.00000000
vn -0.00000000 -0.00000000 -1.00000000
f 1//1 4//4 3//3
f 7//7 11//11 9//9
f 12//12 6//6 15//15
f 2//2 16//16 5//5
f 14//14 19//19 18//18
f 20//20 13//13 17//17
f 19//19 22//22 18//18
f 23//23 21//21 25//25
f 22//22 24//24 18//18
f 27//27 31//31 28//28
f 29//29 24//24 26//26
f 34//34 39//39 35//35
f 29//29 32//32 34//34
f 40//40 42//42 41//41
f 43//43 46//46 45//45
f 7//7 47//47 11//11
f 48//48 9//9 50//50
f 51//51 53//53 52//52
f 54//54 56//56 55//55
f 58//58 61//61 60//60
f 63//63 64//64 57//57
f 65//65 62//62 52//52
f 57//57 59//59 63//63
f 53//53 51//51 55//55
f 65//65 52//52 53//53
f 54//54 47//47 56//56
f 51//51 54//54 55//55
f 10//10 49//49 8//8
f 47//47 7//7 56//56
f 41//41 48//48 40//40
f 48//48 50//50 40//40
f 41//41 42//42 43//43
f 45//45 46//46 35//35
f 43//43 42//42 46//46
f 33//33 30//30 37//37
f 44//44 36//36 38//38
f 69//69 72//72 70//70
f 73//73 75//75 74//74
f 68//68 80//80 77//77
f 71//71 66//66 78//78
f 83//83 80//80 84//84
f 67//67 85//85 79//79
f 82//82 89//89 87//87
f 88//88 81//81 85//85
f 86//86 88//88 90//90
f 91//91 90//90 92//92
f 88//88 92//92 90//90
f 93//93 94//94 91//91
f 93//93 91//91 92//92
f 95//95 99//99 97//97
f 91//91 94//94 95//95
f 100//100 104//104 103//103
f 105//105 108//108 107//107
f 109//109 111//111 110//110
f 114//114 116//116 115//115
f 73//73 118//118 117//117
f 75//75 119//119 74//74
f 122//122 126//126 123//123
f 127//127 126//126 130//130
f 131//131 134//134 132//132
f 135//135 133//133 138//138
f 121//121 137//137 132//132
f 136//136 131//131 132//132
f 139//139 123//123 126//126
f 124//124 137//137 121//121
f 118//118 128//128 129//129
f 128//128 140//140 125//125
f 118//118 73//73 74//74
f 118//118 129//129 117//117
f 112//112 120//120 76//76
f 109//109 110//110 116//116
f 119//119 111//111 109//109
f 115//115 100//100 114//114
f 110//110 115//115 116//116
f 102//102 113//113 101//101
f 104//104 108//108 105//105
f 104//104 105//105 103//103
f 96//96 98//98 106//106
f 97//97 107//107 108//108
f 99//99 95//95 94//94

