mtllib material.mtl
usemtl 0.752941_0.752941_0.000000_0.000000_0.002
v -0.05000000 0.00000000 0.09820000
v -0.04970700 -0.00540600 0.09820000
v -0.04883100 -0.01074800 0.09820000
v -0.04883100 -0.01074800 0.09820000
v -0.04883100 -0.01074800 0.09820000
v -0.04738300 -0.01596500 0.09820000
v -0.04738300 -0.01596500 0.09820000
v -0.04537900 -0.02099400 0.09820000
v -0.04537900 -0.02099400 0.09820000
v -0.04284300 -0.02577800 0.09820000
v -0.04284300 -0.02577800 0.09820000
v -0.03980500 -0.03025900 0.09820000
v -0.03630000 -0.03438500 0.09820000
v -0.03236900 -0.03810800 0.09820000
v -0.02805900 -0.04138400 0.09820000
v -0.02805900 -0.04138400 0.09820000
v -0.02342000 -0.04417600 0.09820000
v -0.02342000 -0.04417600 0.09820000
v -0.01850700 -0.04644900 0.09820000
v -0.01337600 -0.04817700 0.09820000
v -0.01337600 -0.04817700 0.09820000
v -0.00808900 -0.04934100 0.09820000
v -0.00808900 -0.04934100 0.09820000
v -0.00270700 -0.04992700 0.09820000
v -0.00270700 -0.04992700 0.09820000
v 0.00270700 -0.04992700 0.09820000
v 0.00270700 -0.04992700 0.09820000
v 0.00808900 -0.04934100 0.09820000
v 0.00808900 -0.04934100 0.09820000
v 0.01337600 -0.04817700 0.09820000
v 0.01850700 -0.04644900 0.09820000
v 0.01850700 -0.04644900 0.09820000
v 0.02342000 -0.04417600 0.09820000
v 0.02342000 -0.04417600 0.09820000
v 0.02342000 -0.04417600 0.09820000
v 0.02805900 -0.04138400 0.09820000
v 0.02805900 -0.04138400 0.09820000
v 0.03236900 -0.03810800 0.09820000
v 0.03630000 -0.03438500 0.09820000
v 0.03630000 -0.03438500 0.09820000
v 0.03980500 -0.03025900 0.09820000
v 0.04284300 -0.02577800 0.09820000
v 0.04284300 -0.02577800 0.09820000
v 0.04537900 -0.02099400 0.09820000
v 0.04537900 -0.02099400 0.09820000
v 0.04738300 -0.01596500 0.09820000
v 0.04738300 -0.01596500 0.09820000
v 0.04883100 -0.01074800 0.09820000
v 0.04883100 -0.01074800 0.09820000
v 0.04883100 -0.01074800 0.09820000
v 0.04970700 -0.00540600 0.09820000
v 0.05000000 0.00000000 0.09820000
v 0.04970700 0.00540600 0.09820000
v 0.04883100 0.01074800 0.09820000
v 0.04883100 0.01074800 0.09820000
v 0.04738300 0.01596500 0.09820000
v 0.04738300 0.01596500 0.09820000
v 0.04537900 0.02099400 0.09820000
v 0.04537900 0.02099400 0.09820000
v 0.04284300 0.02577800 0.09820000
v 0.04284300 0.02577800 0.09820000
v 0.03980500 0.03025900 0.09820000
v 0.03630000 0.03438500 0.09820000
v 0.03236900 0.03810800 0.09820000
v 0.02805900 0.04138400 0.09820000
v 0.02805900 0.04138400 0.09820000
v 0.02342000 0.04417600 0.09820000
v 0.02342000 0.04417600 0.09820000
v 0.01850700 0.04644900 0.09820000
v 0.01337600 0.04817700 0.09820000
v 0.00808900 0.04934100 0.09820000
v 0.00808900 0.04934100 0.09820000
v 0.00270700 0.04992700 0.09820000
v 0.00000000 0.05000000 0.09820000
v -0.00808900 0.04934100 0.09820000
v -0.00808900 0.04934100 0.09820000
v -0.00270700 0.04992700 0.09820000
v -0.00270700 0.04992700 0.09820000
v -0.01337600 0.04817700 0.09820000
v -0.01337600 0.04817700 0.09820000
v -0.01850700 0.04644900 0.09820000
v -0.01850700 0.04644900 0.09820000
v -0.02342000 0.04417600 0.09820000
v -0.02342000 0.04417600 0.09820000
v -0.02342000 0.04417600 0.09820000
v -0.02805900 0.04138400 0.09820000
v -0.02805900 0.04138400 0.09820000
v -0.03236900 0.03810800 0.09820000
v -0.03630000 0.03438500 0.09820000
v -0.03980500 0.03025900 0.09820000
v -0.04284300 0.02577800 0.09820000
v -0.04284300 0.02577800 0.09820000
v -0.04537900 0.02099400 0.09820000
v -0.04537900 0.02099400 0.09820000
v -0.04738300 0.01596500 0.09820000
v -0.04738300 0.01596500 0.09820000
v -0.04883100 0.01074800 0.09820000
v -0.04883100 0.01074800 0.09820000
v -0.04970700 0.00540600 0.09820000
v -0.00539500 -0.04960700 0.09820000
v -0.00539500 -0.04960700 0.09820000
v 0.00000000 -0.04990000 0.09820000
v -0.04808100 -0.01335000 0.09820000
v -0.04808100 -0.01335000 0.09820000
v -0.04808100 -0.01335000 0.09820000
v -0.04924300 0.00807300 0.09820000
v -0.04982700 0.00270200 0.09820000
v 0.04808100 -0.01335000 0.09820000
v 0.04808100 -0.01335000 0.09820000
v 0.04808100 -0.01335000 0.09820000
v 0.04924300 -0.00807300 0.09820000
v 0.04924300 -0.00807300 0.09820000
v 0.03803200 -0.03230500 0.09820000
v 0.03803200 -0.03230500 0.09820000
v 0.02095200 -0.04528800 0.09820000
v 0.02095200 -0.04528800 0.09820000
v 0.00539500 -0.04960700 0.09820000
v 0.00539500 -0.04960700 0.09820000
v -0.04408700 -0.02337400 0.09820000
v -0.04408700 -0.02337400 0.09820000
v -0.04130200 -0.02800300 0.09820000
v -0.04635600 -0.01847000 0.09820000
v -0.04924300 -0.00807300 0.09820000
v -0.04924300 -0.00807300 0.09820000
v -0.04982700 -0.00270200 0.09820000
v -0.03803200 0.03230500 0.09820000
v -0.04130200 0.02800300 0.09820000
v 0.04408700 0.02337400 0.09820000
v 0.04408700 0.02337400 0.09820000
v 0.04130200 0.02800300 0.09820000
v 0.04808100 0.01335000 0.09820000
v 0.04808100 0.01335000 0.09820000
v 0.04635600 0.01847000 0.09820000
v 0.04982700 -0.00270200 0.09820000
v 0.04130200 -0.02800300 0.09820000
v 0.02572600 -0.04275700 0.09820000
v 0.02572600 -0.04275700 0.09820000
v 0.01593300 -0.04728800 0.09820000
v 0.01072700 -0.04873300 0.09820000
v 0.01072700 -0.04873300 0.09820000
v 0.04924300 0.00807300 0.09820000
v 0.04982700 0.00270200 0.09820000
v 0.04635600 -0.01847000 0.09820000
v 0.03431600 -0.03622700 0.09820000
v 0.03431600 -0.03622700 0.09820000
v 0.03019800 -0.03972500 0.09820000
v -0.01072700 -0.04873300 0.09820000
v -0.01072700 -0.04873300 0.09820000
v -0.01072700 -0.04873300 0.09820000
v -0.02572600 -0.04275700 0.09820000
v -0.02572600 -0.04275700 0.09820000
v -0.03431600 -0.03622700 0.09820000
v -0.03019800 -0.03972500 0.09820000
v -0.04635600 0.01847000 0.09820000
v -0.04808100 0.01335000 0.09820000
v -0.04808100 0.01335000 0.09820000
v -0.04408700 0.02337400 0.09820000
v -0.04408700 0.02337400 0.09820000
v -0.03431600 0.03622700 0.09820000
v -0.02572600 0.04275700 0.09820000
v -0.02572600 0.04275700 0.09820000
v -0.03019800 0.03972500 0.09820000
v -0.02095200 0.04528800 0.09820000
v -0.02095200 0.04528800 0.09820000
v -0.01072700 0.04873300 0.09820000
v -0.01072700 0.04873300 0.09820000
v -0.01072700 0.04873300 0.09820000
v 0.01593300 0.04728800 0.09820000
v 0.01072700 0.04873300 0.09820000
v 0.01072700 0.04873300 0.09820000
v 0.02095200 0.04528800 0.09820000
v 0.02572600 0.04275700 0.09820000
v 0.02572600 0.04275700 0.09820000
v 0.03431600 0.03622700 0.09820000
v 0.03019800 0.03972500 0.09820000
v 0.03803200 0.03230500 0.09820000
v 0.04408700 -0.02337400 0.09820000
v 0.04408700 -0.02337400 0.09820000
v -0.02095200 -0.04528800 0.09820000
v -0.01593300 -0.04728800 0.09820000
v -0.03803200 -0.03230500 0.09820000
v -0.01593300 0.04728800 0.09820000
v 0.00000000 0.04990000 0.09820000
v 0.00539500 0.04960700 0.09820000
v 0.00539500 0.04960700 0.09820000
v -0.00539500 0.04960700 0.09820000
v -0.00539500 0.04960700 0.09820000
vn -0.00000000 -0.00000000 -1.00000000
vn -0.00000000 -0.00000000 -1.00000000
vn -0.00000000 -0.00000000 -1.00000000
vn 0.00030000 -0.00000000 -1.00000000
vn -0.00000000 0.00010000 -1.00000000
vn -0.00000000 -0.00000000 -1.00000000
vn -0.00000000 0.00010000 -1.00000000
vn 0.00010000 0.00010000 -1.00000000
vn -0.00000000 -0.00000000 -1.00000000
vn -0.00000000 -0.00000000 -1.00000000
vn 0.00010000 0.00010000 -1.00000000
vn -0.00000000 -0.00000000 -1.00000000
vn -0.00000000 -0.00000000 -1.00000000
vn -0.00000000 -0.00000000 -1.00000000
vn -0.00000000 -0.00000000 -1.00000000
vn -0.00020000 -0.00000000 -1.00000000
vn -0.00000000 -0.00000000 -1.00000000
vn -0.00020000 -0.00000000 -1.00000000
vn -0.00000000 -0.00000000 -1.00000000
vn -0.00000000 -0.00000000 -1.00000000
vn -0.00010000 0.00010000 -1.00000000
vn -0.00000000 0.00010000 -1.00000000
vn -0.00010000 0.00010000 -1.00000000
vn -0.00000000 0.00010000 -1.00000000
vn -0.00000000 -0.00000000 -1.00000000
vn -0.00000000 -0.00000000 -1.00000000
vn -0.00000000 0.00010000 -1.00000000
vn -0.00000000 -0.00000000 -1.00000000
vn -0.00000000 0.00010000 -1.00000000
vn -0.00000000 -0.00000000 -1.00000000
vn -0.00000000 -0.00000000 -1.00000000
vn -0.00020000 -0.00020000 -1.00000000
vn -0.00020000 -0.00020000 -1.00000000
vn -0.00000000 -0.00000000 -1.00000000
vn 0.00010000 -0.00010000 -1.00000000
vn 0.00010000 -0.00010000 -1.00000000
vn -0.00000000 -0.00000000 -1.00000000
vn -0.00000000 -0.00000000 -1.00000000
vn -0.00000000 -0.00000000 -1.00000000
vn -0.00000000 0.00010000 -1.00000000
vn -0.00000000 -0.00000000 -1.00000000
vn -0.00010000 0.00010000 -1.00000000
vn -0.00000000 -0.00000000 -1.00000000
vn -0.00000000 -0.00000000 -1.00000000
vn -0.00010000 0.00010000 -1.00000000
vn -0.00000000 -0.00000000 -1.00000000
vn -0.00000000 0.00010000 -1.00000000
vn -0.00000000 0.00010000 -1.00000000
vn -0.00030000 -0.00000000 -1.00000000
vn -0.00000000 -0.00000000 -1.00000000
vn -0.00000000 -0.00000000 -1.00000000
vn -0.00000000 -0.00000000 -1.00000000
vn -0.00000000 -0.00000000 -1.00000000
vn -0.00000000 -0.00010000 -1.00000000
vn -0.00000000 -0.00000000 -1.00000000
vn -0.00000000 -0.00010000 -1.00000000
vn -0.00000000 -0.00000000 -1.00000000
vn -0.00000000 -0.00000000 -1.00000000
vn -0.00000000 -0.00020000 -1.00000000
vn -0.00000000 -0.00000000 -1.00000000
vn -0.00000000 -0.00020000 -1.00000000
vn -0.00000000 -0.00000000 -1.00000000
vn -0.00000000 -0.00000000 -1.00000000
vn -0.00000000 -0.00000000 -1.00000000
vn 0.00020000 -0.00000000 -1.00000000
vn -0.00000000 -0.00000000 -1.00000000
vn 0.00020000 -0.00000000 -1.00000000
vn -0.00000000 -0.00000000 -1.00000000
vn -0.00000000 -0.00000000 -1.00000000
vn -0.00000000 -0.00000000 -1.00000000
vn -0.00000000 -0.00010000 -1.00000000
vn -0.00000000 -0.00000000 -1.00000000
vn -0.00000000 -0.00000000 -1.00000000
vn -0.00000000 -0.00000000 -1.00000000
vn -0.00010000 -0.00010000 -1.00000000
vn -0.00000000 -0.00010000 -1.00000000
vn -0.00000000 -0.00000000 -1.00000000
vn -0.00000000 -0.00010000 -1.00000000
vn -0.00010000 -0.00010000 -1.00000000
vn -0.00000000 -0.00000000 -1.00000000
vn 0.00020000 0.00020000 -1.00000000
vn -0.00000000 -0.00000000 -1.00000000
vn -0.00010000 0.00010000 -1.00000000
vn -0.00000000 -0.00000000 -1.00000000
vn 0.00020000 0.00020000 -1.00000000
vn -0.00010000 0.00010000 -1.00000000
vn -0.00000000 -0.00000000 -1.00000000
vn -0.00000000 -0.00000000 -1.00000000
vn -0.00000000 -0.00000000 -1.00000000
vn -0.00000000 -0.00000000 -1.00000000
vn -0.00000000 -0.00020000 -1.00000000
vn -0.00000000 -0.00000000 -1.00000000
vn -0.00000000 -0.00000000 -1.00000000
vn -0.00000000 -0.00020000 -1.00000000
vn -0.00000000 -0.00000000 -1.00000000
vn -0.00000000 -0.00020000 -1.00000000
vn -0.00000000 -0.00020000 -1.00000000
vn -0.00000000 -0.00000000 -1.00000000
vn -0.00000000 -0.00000000 -1.00000000
vn -0.00000000 0.00010000 -1.00000000
vn -0.00000000 -0.00000000 -1.00000000
vn -0.00000000 -0.00000000 -1.00000000
vn 0.00030000 -0.00000000 -1.00000000
vn -0.00000000 -0.00000000 -1.00000000
vn -0.00000000 0.00010000 -1.00000000
vn -0.00000000 -0.00000000 -1.00000000
vn -0.00000000 -0.00000000 -1.00000000
vn -0.00000000 -0.00000000 -1.00000000
vn -0.00000000 0.00010000 -1.00000000
vn -0.00030000 -0.00000000 -1.00000000
vn -0.00030000 -0.00000000 -1.00000000
vn -0.00000000 -0.00000000 -1.00000000
vn -0.00000000 -0.00000000 -1.00000000
vn -0.00000000 0.00010000 -1.00000000
vn -0.00000000 -0.00000000 -1.00000000
vn -0.00020000 -0.00020000 -1.00000000
vn -0.00000000 0.00010000 -1.00000000
vn -0.00000000 -0.00000000 -1.00000000
vn -0.00000000 -0.00000000 -1.00000000
vn 0.00010000 0.00010000 -1.00000000
vn -0.00000000 -0.00000000 -1.00000000
vn -0.00000000 -0.00000000 -1.00000000
vn 0.00030000 -0.00000000 -1.00000000
vn -0.00000000 -0.00000000 -1.00000000
vn -0.00000000 -0.00000000 -1.00000000
vn -0.00000000 -0.00000000 -1.00000000
vn -0.00000000 -0.00000000 -1.00000000
vn -0.00000000 -0.00000000 -1.00000000
vn -0.00000000 -0.00020000 -1.00000000
vn -0.00000000 -0.00000000 -1.00000000
vn -0.00000000 -0.00000000 -1.00000000
vn -0.00000000 -0.00010000 -1.00000000
vn -0.00000000 -0.00000000 -1.00000000
vn -0.00000000 -0.00000000 -1.00000000
vn -0.00000000 -0.00000000 -1.00000000
vn 0.00010000 -0.00010000 -1.00000000
vn -0.00000000 -0.00000000 -1.00000000
vn -0.00000000 -0.00000000 -1.00000000
vn -0.00000000 0.00010000 -1.00000000
vn -0.00000000 -0.00000000 -1.00000000
vn -0.00000000 -0.00000000 -1.00000000
vn -0.00000000 -0.00000000 -1.00000000
vn -0.00000000 -0.00000000 -1.00000000
vn -0.00000000 0.00010000 -1.00000000
vn -0.00000000 -0.00000000 -1.00000000
vn -0.00000000 -0.00000000 -1.00000000
vn -0.00000000 -0.00000000 -1.00000000
vn -0.00010000 0.00010000 -1.00000000
vn -0.00000000 0.00010000 -1.00000000
vn -0.00000000 -0.00000000 -1.00000000
vn -0.00020000 -0.00000000 -1.00000000
vn -0.00000000 -0.00000000 -1.00000000
vn -0.00000000 -0.00000000 -1.00000000
vn -0.00000000 -0.00000000 -1.00000000
vn -0.00000000 -0.00000000 -1.00000000
vn -0.00000000 -0.00020000 -1.00000000
vn -0.00000000 -0.00020000 -1.00000000
vn -0.00000000 -0.00000000 -1.00000000
vn -0.00000000 -0.00000000 -1.00000000
vn -0.00010000 0.00010000 -1.00000000
vn -0.00000000 -0.00000000 -1.00000000
vn -0.00000000 -0.00000000 -1.00000000
vn -0.00000000 -0.00000000 -1.00000000
vn 0.00020000 0.00020000 -1.00000000
vn -0.00010000 -0.00010000 -1.00000000
vn -0.00000000 -0.00010000 -1.00000000
vn -0.00000000 -0.00000000 -1.00000000
vn -0.00000000 -0.00000000 -1.00000000
vn -0.00000000 -0.00010000 -1.00000000
vn -0.00000000 -0.00000000 -1.00000000
vn -0.00000000 -0.00000000 -1.00000000
vn 0.00020000 -0.00000000 -1.00000000
vn -0.00000000 -0.00000000 -1.00000000
vn -0.00000000 -0.00000000 -1.00000000
vn -0.00000000 -0.00000000 -1.00000000
vn -0.00000000 -0.00000000 -1.00000000
vn -0.00000000 -0.00000000 -1.00000000
vn -0.00010000 0.00010000 -1.00000000
vn -0.00000000 -0.00000000 -1.00000000
vn -0.00000000 -0.00000000 -1.00000000
vn -0.00000000 -0.00000000 -1.00000000
vn -0.00000000 -0.00000000 -1.00000000
vn -0.00000000 -0.00000000 -1.00000000
vn -0.00000000 -0.00010000 -1.00000000
vn -0.00000000 -0.00000000 -1.00000000
vn -0.00000000 -0.00010000 -1.00000000
vn -0.00000000 -0.00000000 -1.00000000
f 25//25 101//101 102//102
f 7//7 5//5 105//105
f 99//99 106//106 107//107
f 49//49 110//110 111//111
f 41//41 39//39 113//113
f 33//33 32//32 116//116
f 29//29 27//27 117//117
f 24//24 22//22 100//100
f 10//10 119//119 121//121
f 9//9 122//122 119//119
f 4//4 123//123 103//103
f 2//2 125//125 124//124
f 1//1 107//107 125//125
f 99//99 98//98 106//106
f 90//90 126//126 127//127
f 60//60 128//128 130//130
f 57//57 131//131 133//133
f 51//51 112//112 134//134
f 48//48 47//47 109//109
f 113//113 135//135 41//41
f 115//115 137//137 34//34
f 31//31 30//30 138//138
f 117//117 139//139 29//29
f 102//102 26//26 25//25
f 121//121 12//12 10//10
f 9//9 6//6 122//122
f 124//124 3//3 2//2
f 107//107 1//1 99//99
f 90//90 89//89 126//126
f 61//61 59//59 129//129
f 56//56 54//54 132//132
f 55//55 53//53 141//141
f 52//52 134//134 142//142
f 112//112 51//51 50//50
f 46//46 44//44 143//143
f 40//40 144//144 114//114
f 38//38 146//146 145//145
f 138//138 115//115 31//31
f 102//102 118//118 26//26
f 23//23 21//21 148//148
f 18//18 16//16 151//151
f 14//14 152//152 153//153
f 120//120 11//11 8//8
f 125//125 2//2 1//1
f 95//95 154//154 155//155
f 94//94 91//91 157//157
f 127//127 92//92 90//90
f 89//89 88//88 159//159
f 87//87 161//161 162//162
f 84//84 163//163 161//161
f 79//79 75//75 165//165
f 70//70 168//168 170//170
f 69//69 171//171 168//168
f 68//68 173//173 171//171
f 64//64 174//174 175//175
f 63//63 62//62 176//176
f 130//130 62//62 60//60
f 133//133 58//58 57//57
f 53//53 142//142 141//141
f 134//134 52//52 51//51
f 44//44 177//177 143//143
f 43//43 135//135 177//177
f 145//145 39//39 38//38
f 37//37 137//137 146//146
f 30//30 140//140 138//138
f 149//149 100//100 22//22
f 19//19 179//179 180//180
f 150//150 179//179 17//17
f 153//153 15//15 14//14
f 13//13 12//12 181//181
f 104//104 122//122 6//6
f 156//156 97//97 96//96
f 158//158 154//154 93//93
f 159//159 126//126 89//89
f 162//162 88//88 87//87
f 85//85 81//81 164//164
f 167//167 182//182 80//80
f 168//168 70//70 69//69
f 67//67 65//65 172//172
f 175//175 66//66 64//64
f 176//176 174//174 63//63
f 133//133 128//128 58//58
f 142//142 53//53 52//52
f 178//178 45//45 42//42
f 146//146 38//38 37//37
f 140//140 30//30 28//28
f 180//180 20//20 19//19
f 153//153 150//150 15//15
f 181//181 152//152 13//13
f 155//155 106//106 98//98
f 127//127 158//158 92//92
f 160//160 86//86 83//83
f 182//182 82//82 80//80
f 171//171 69//69 68//68
f 174//174 64//64 63//63
f 141//141 131//131 55//55
f 135//135 43//43 41//41
f 180//180 147//147 20//20
f 152//152 14//14 13//13
f 154//154 95//95 93//93
f 182//182 163//163 82//82
f 175//175 173//173 66//66
f 143//143 108//108 46//46
f 179//179 19//19 17//17
f 162//162 159//159 88//88
f 183//183 74//74 73//73
f 71//71 169//169 184//184
f 130//130 176//176 62//62
f 121//121 181//181 12//12
f 185//185 73//73 72//72
f 136//136 36//36 35//35
f 76//76 78//78 186//186
f 183//183 187//187 77//77
f 170//170 72//72 70//70
f 77//77 74//74 183//183
f 186//186 166//166 76//76
f 73//73 185//185 183//183

